<svg width="76" height="51" viewBox="0 0 76 51" fill="none" xmlns="http://www.w3.org/2000/svg">
<path d="M8 5C8 2.79086 9.79086 1 12 1H64C66.2091 1 68 2.79086 68 5V42H8V5Z" stroke="#3C00D0" stroke-width="2"/>
<path d="M1 42H75V46C75 48.2091 73.2091 50 71 50H5C2.79086 50 1 48.2091 1 46V42Z" stroke="#3C00D0" stroke-width="2"/>
<path d="M47.3332 33.375C47.3332 31.6887 47.3332 30.8455 47.1322 30.1594C46.6798 28.6147 45.5126 27.4059 44.0212 26.9373C43.3587 26.7292 42.5447 26.7292 40.9165 26.7292H35.0832C33.455 26.7292 32.6409 26.7292 31.9785 26.9373C30.487 27.4059 29.3199 28.6147 28.8675 30.1594C28.6665 30.8455 28.6665 31.6887 28.6665 33.375M43.2498 17.0625C43.2498 20.0655 40.8993 22.5 37.9998 22.5C35.1003 22.5 32.7498 20.0655 32.7498 17.0625C32.7498 14.0595 35.1003 11.625 37.9998 11.625C40.8993 11.625 43.2498 14.0595 43.2498 17.0625Z" stroke="#3C00D0" stroke-width="2" stroke-linecap="round" stroke-linejoin="round"/>
</svg>
