<svg width="37" height="64" viewBox="0 0 37 64" fill="none" xmlns="http://www.w3.org/2000/svg">
<path d="M1 5.86621C1 3.65707 2.79086 1.86621 5 1.86621H32C34.2091 1.86621 36 3.65707 36 5.86621V58.8662C36 61.0753 34.2091 62.8662 32 62.8662H5C2.79086 62.8662 1 61.0753 1 58.8662V5.86621Z" stroke="#2965D1" stroke-width="2"/>
<path d="M27.3334 44.2412C27.3334 42.5549 27.3334 41.7117 27.1325 41.0257C26.68 39.4809 25.5129 38.2721 24.0214 37.8035C23.359 37.5954 22.5449 37.5954 20.9167 37.5954H15.0834C13.4553 37.5954 12.6412 37.5954 11.9787 37.8035C10.4873 38.2721 9.32013 39.4809 8.86769 41.0257C8.66675 41.7117 8.66675 42.5549 8.66675 44.2412M23.2501 27.9287C23.2501 30.9318 20.8996 33.3662 18.0001 33.3662C15.1006 33.3662 12.7501 30.9318 12.7501 27.9287C12.7501 24.9257 15.1006 22.4912 18.0001 22.4912C20.8996 22.4912 23.2501 24.9257 23.2501 27.9287Z" stroke="#2965D1" stroke-width="2" stroke-linecap="round" stroke-linejoin="round"/>
</svg>
