<svg width="76" height="51" viewBox="0 0 76 51" fill="none" xmlns="http://www.w3.org/2000/svg">
<path d="M8 5C8 2.79086 9.79086 1 12 1H64C66.2091 1 68 2.79086 68 5V42H8V5Z" stroke="#3C00D0" stroke-width="2"/>
<path d="M38.1443 36.233L38.1444 36.2331L38.1518 36.2314C44.378 34.7798 49.25 28.6997 49.25 22.3775V11.8117C49.25 11.3878 48.9554 10.9578 48.5004 10.9576C44.4617 10.9516 40.8235 9.49777 38.5193 6.98508L38.5193 6.98508L38.5185 6.98428C38.2296 6.67191 37.7704 6.67191 37.4815 6.98428L37.4809 6.98488C35.1714 9.49804 31.538 10.9576 27.5 10.9576V10.9575L27.4945 10.9576C27.048 10.9675 26.75 11.3821 26.75 11.8117V22.3714C26.75 28.6885 31.614 34.7638 37.833 36.2218C37.8888 36.2412 37.9474 36.25 38 36.25C38.0571 36.25 38.1135 36.2392 38.1443 36.233ZM28.25 12.6509C32.0753 12.4877 35.5607 11.0976 38 8.75462C40.4393 11.0976 43.9247 12.4877 47.75 12.6509V22.3775C47.75 27.7587 43.391 33.1821 38 34.5223C32.6091 33.1821 28.25 27.7528 28.25 22.3775V12.6509Z" fill="#3C00D0" stroke="#3C00D0" stroke-width="0.5"/>
<path d="M33.5 21.5L37 25L44 18" stroke="#3C00D0" stroke-width="2"/>
<path d="M1 42H75V46C75 48.2091 73.2091 50 71 50H5C2.79086 50 1 48.2091 1 46V42Z" stroke="#3C00D0" stroke-width="2"/>
</svg>
