<svg width="37" height="64" viewBox="0 0 37 64" fill="none" xmlns="http://www.w3.org/2000/svg">
<path d="M19.1443 47.0992L19.1444 47.0993L19.1518 47.0976C25.378 45.646 30.25 39.566 30.25 33.2437V22.6779C30.25 22.254 29.9554 21.824 29.5004 21.8238C25.4617 21.8178 21.8235 20.364 19.5193 17.8513L19.5193 17.8513L19.5185 17.8505C19.2296 17.5381 18.7704 17.5381 18.4815 17.8505L18.4809 17.8511C16.1714 20.3643 12.538 21.8238 8.5 21.8238V21.8237L8.49451 21.8239C8.04804 21.8337 7.75 22.2483 7.75 22.6779V33.2376C7.75 39.5547 12.614 45.63 18.833 47.088C18.8888 47.1074 18.9474 47.1162 19 47.1162C19.0571 47.1162 19.1135 47.1054 19.1443 47.0992ZM9.25 23.5172C13.0753 23.3539 16.5607 21.9638 19 19.6208C21.4393 21.9638 24.9247 23.3539 28.75 23.5172V33.2437C28.75 38.6249 24.391 44.0483 19 45.3885C13.6091 44.0483 9.25 38.619 9.25 33.2437V23.5172Z" fill="#2965D1" stroke="#2965D1" stroke-width="0.5"/>
<path d="M14.5 32.3662L18 35.8662L25 28.8662" stroke="#2965D1" stroke-width="2"/>
<path d="M1 5.86621C1 3.65707 2.79086 1.86621 5 1.86621H32C34.2091 1.86621 36 3.65707 36 5.86621V58.8662C36 61.0753 34.2091 62.8662 32 62.8662H5C2.79086 62.8662 1 61.0753 1 58.8662V5.86621Z" stroke="#2965D1" stroke-width="2"/>
<path d="M14 6.86621H20" stroke="#2965D1" stroke-width="2" stroke-linecap="round"/>
<path d="M24 6.86621H24.0001" stroke="#2965D1" stroke-width="2" stroke-linecap="round"/>
</svg>
