<svg width="61" height="63" viewBox="0 0 61 63" fill="none" xmlns="http://www.w3.org/2000/svg">
<path d="M43.2375 13.9398L43.2375 13.9401L42.4899 46.5853H44.3158L43.5682 13.9407L43.5682 13.9406M43.2375 13.9398L43.1875 13.939C43.1914 13.7046 43.6123 13.7041 43.6182 13.9395L43.5682 13.9406M43.2375 13.9398C43.2382 13.8982 43.2566 13.8683 43.2851 13.8474C43.3151 13.8255 43.3573 13.8131 43.4021 13.8131C43.4469 13.8131 43.4893 13.8255 43.5195 13.8475C43.5484 13.8686 43.5671 13.8987 43.5682 13.9406M43.2375 13.9398L43.5682 13.9406M55.2314 46.5853H45.9166L45.1682 13.9046C45.147 12.9527 44.3553 12.1785 43.4023 12.1785C42.4504 12.1785 41.6586 12.9527 41.6375 13.9042L40.8891 46.5853H6.11816C3.26828 46.5853 0.95 48.9035 0.95 51.7534V57.3818C0.95 60.2317 3.26828 62.55 6.11816 62.55H55.2314C58.0813 62.55 60.3996 60.2317 60.3996 57.3818V51.7534C60.3996 48.9035 58.0813 46.5853 55.2314 46.5853ZM58.7996 57.3818C58.7996 59.3493 57.1989 60.95 55.2314 60.95H6.11816C4.15066 60.95 2.55 59.3493 2.55 57.3818V51.7534C2.55 49.7859 4.15066 48.1853 6.11816 48.1853H55.2314C57.1989 48.1853 58.7996 49.7859 58.7996 51.7534V57.3818Z" fill="#3C00D0" stroke="#3C00D0" stroke-width="0.1"/>
<path d="M40.3037 50.7679C38.2087 50.7679 36.5037 52.4724 36.5037 54.5679C36.5037 56.6634 38.2087 58.3679 40.3037 58.3679C42.3987 58.3679 44.1037 56.6634 44.1037 54.5679C44.1037 52.4724 42.3987 50.7679 40.3037 50.7679ZM40.3037 56.7679C39.0911 56.7679 38.1037 55.781 38.1037 54.5679C38.1037 53.3548 39.0911 52.3679 40.3037 52.3679C41.5163 52.3679 42.5037 53.3548 42.5037 54.5679C42.5037 55.781 41.5163 56.7679 40.3037 56.7679Z" fill="#3C00D0" stroke="#3C00D0" stroke-width="0.1"/>
<path d="M51.6855 50.7679C49.5906 50.7679 47.8855 52.4724 47.8855 54.5679C47.8855 56.6634 49.5906 58.3679 51.6855 58.3679C53.7805 58.3679 55.4855 56.6634 55.4855 54.5679C55.4855 52.4724 53.7805 50.7679 51.6855 50.7679ZM51.6855 56.7679C50.4729 56.7679 49.4855 55.781 49.4855 54.5679C49.4855 53.3548 50.4729 52.3679 51.6855 52.3679C52.8982 52.3679 53.8855 53.3548 53.8855 54.5679C53.8855 55.781 52.8982 56.7679 51.6855 56.7679Z" fill="#3C00D0" stroke="#3C00D0" stroke-width="0.1"/>
<path d="M10.3965 53.7679H6.19434C5.75266 53.7679 5.39434 54.1262 5.39434 54.5679C5.39434 55.0095 5.75266 55.3679 6.19434 55.3679H10.3965C10.8382 55.3679 11.1965 55.0095 11.1965 54.5679C11.1965 54.1262 10.8382 53.7679 10.3965 53.7679Z" fill="#3C00D0" stroke="#3C00D0" stroke-width="0.1"/>
<path d="M19.043 53.7679H14.8408C14.3991 53.7679 14.0408 54.1262 14.0408 54.5679C14.0408 55.0095 14.3991 55.3679 14.8408 55.3679H19.043C19.4846 55.3679 19.843 55.0095 19.843 54.5679C19.843 54.1262 19.4846 53.7679 19.043 53.7679Z" fill="#3C00D0" stroke="#3C00D0" stroke-width="0.1"/>
<path d="M27.6895 53.7679H23.4873C23.0456 53.7679 22.6873 54.1262 22.6873 54.5679C22.6873 55.0095 23.0456 55.3679 23.4873 55.3679H27.6895C28.1311 55.3679 28.4895 55.0095 28.4895 54.5679C28.4895 54.1262 28.1311 53.7679 27.6895 53.7679Z" fill="#3C00D0" stroke="#3C00D0" stroke-width="0.1"/>
<path d="M47.2287 17.869L47.2287 17.869C48.6477 16.7217 49.4611 15.0126 49.4611 13.1792C49.4611 9.84242 46.7414 7.12822 43.3994 7.12822C40.0632 7.12822 37.3484 9.8425 37.3484 13.1792C37.3484 15.0179 38.1618 16.731 39.5809 17.8787C39.7288 17.9985 39.907 18.0568 40.084 18.0568C40.3162 18.0568 40.5475 17.9553 40.7058 17.76L40.7058 17.76C40.984 17.4167 40.9309 16.9126 40.5871 16.6349C39.5462 15.7925 38.9484 14.5329 38.9484 13.1792C38.9484 10.7249 40.9456 8.72822 43.3994 8.72822C45.8592 8.72822 47.8611 10.725 47.8611 13.1792C47.8611 14.527 47.2643 15.7827 46.2225 16.6242L46.2225 16.6242C45.8787 16.9023 45.8256 17.4059 46.1037 17.7496C46.3809 18.0936 46.886 18.1455 47.2287 17.869Z" fill="#3C00D0" stroke="#3C00D0" stroke-width="0.1"/>
<path d="M40.3194 20.0692L40.3194 20.0692C37.6107 18.8492 35.8596 16.1443 35.8596 13.1792C35.8596 9.02127 39.2425 5.63887 43.3994 5.63887C47.5633 5.63887 50.95 9.02133 50.95 13.1792C50.95 16.1379 49.1989 18.8389 46.4902 20.0589L46.4902 20.0589C46.0871 20.2407 45.9079 20.7141 46.0891 21.1171C46.2705 21.5215 46.7475 21.6979 47.1465 21.5182C50.429 20.0395 52.55 16.7668 52.55 13.1792C52.55 8.13933 48.4455 4.03887 43.3994 4.03887C38.3601 4.03887 34.2596 8.13938 34.2596 13.1792C34.2596 16.7726 36.3805 20.0497 39.663 21.5285C39.7694 21.5764 39.8809 21.5988 39.9912 21.5988C40.2953 21.5988 40.587 21.4239 40.7204 21.1274L40.6748 21.1069L40.7204 21.1274C40.9016 20.7244 40.7225 20.2509 40.3194 20.0692Z" fill="#3C00D0" stroke="#3C00D0" stroke-width="0.1"/>
<path d="M39.6536 24.8347L39.6537 24.8347C39.7349 24.8607 39.8181 24.8732 39.8994 24.8732C40.2368 24.8732 40.5514 24.6577 40.6609 24.3191L40.6609 24.319C40.7963 23.8988 40.5661 23.4477 40.1453 23.3118L40.1299 23.3594L40.1452 23.3118C35.7343 21.8878 32.7707 17.8157 32.7707 13.1792C32.7707 7.31814 37.5384 2.55 43.3994 2.55C49.2664 2.55 54.0398 7.31819 54.0398 13.1792C54.0398 17.8206 51.0724 21.8882 46.6566 23.301L46.6566 23.301C46.2359 23.4359 46.0035 23.8858 46.1389 24.3068C46.2723 24.7266 46.7184 24.9598 47.144 24.825L47.1441 24.825C52.2254 23.1992 55.6398 18.5188 55.6398 13.1792C55.6398 6.43572 50.1487 0.95 43.3994 0.95C36.656 0.95 31.1707 6.43577 31.1707 13.1792C31.1707 18.5124 34.5802 23.1962 39.6536 24.8347Z" fill="#3C00D0" stroke="#3C00D0" stroke-width="0.1"/>
</svg>
