<svg width="61" height="63" viewBox="0 0 61 63" fill="none" xmlns="http://www.w3.org/2000/svg">
<path d="M43.2375 13.806L43.2375 13.8063L42.4899 46.4515H44.3158L43.5682 13.8069L43.5682 13.8068M43.2375 13.806L43.1875 13.8052C43.1914 13.5708 43.6123 13.5703 43.6182 13.8057L43.5682 13.8068M43.2375 13.806C43.2382 13.7644 43.2566 13.7345 43.2851 13.7136C43.3151 13.6918 43.3573 13.6793 43.4021 13.6793C43.4469 13.6793 43.4893 13.6917 43.5195 13.7138C43.5484 13.7348 43.5671 13.7649 43.5682 13.8068M43.2375 13.806L43.5682 13.8068M55.2314 46.4515H45.9166L45.1682 13.7708C45.147 12.8189 44.3553 12.0447 43.4023 12.0447C42.4504 12.0447 41.6586 12.8189 41.6375 13.7704L40.8891 46.4515H6.11816C3.26828 46.4515 0.95 48.7697 0.95 51.6196V57.248C0.95 60.0979 3.26828 62.4162 6.11816 62.4162H55.2314C58.0813 62.4162 60.3996 60.0979 60.3996 57.248V51.6196C60.3996 48.7697 58.0813 46.4515 55.2314 46.4515ZM58.7996 57.248C58.7996 59.2155 57.1989 60.8162 55.2314 60.8162H6.11816C4.15066 60.8162 2.55 59.2155 2.55 57.248V51.6196C2.55 49.6521 4.15066 48.0515 6.11816 48.0515H55.2314C57.1989 48.0515 58.7996 49.6521 58.7996 51.6196V57.248Z" fill="#2965D1" stroke="#2965D1" stroke-width="0.1"/>
<path d="M40.3037 50.6341C38.2087 50.6341 36.5037 52.3386 36.5037 54.4341C36.5037 56.5296 38.2087 58.2341 40.3037 58.2341C42.3987 58.2341 44.1037 56.5296 44.1037 54.4341C44.1037 52.3386 42.3987 50.6341 40.3037 50.6341ZM40.3037 56.6341C39.0911 56.6341 38.1037 55.6472 38.1037 54.4341C38.1037 53.221 39.0911 52.2341 40.3037 52.2341C41.5163 52.2341 42.5037 53.221 42.5037 54.4341C42.5037 55.6472 41.5163 56.6341 40.3037 56.6341Z" fill="#2965D1" stroke="#2965D1" stroke-width="0.1"/>
<path d="M51.6855 50.6341C49.5906 50.6341 47.8855 52.3386 47.8855 54.4341C47.8855 56.5296 49.5906 58.2341 51.6855 58.2341C53.7805 58.2341 55.4855 56.5296 55.4855 54.4341C55.4855 52.3386 53.7805 50.6341 51.6855 50.6341ZM51.6855 56.6341C50.4729 56.6341 49.4855 55.6472 49.4855 54.4341C49.4855 53.221 50.4729 52.2341 51.6855 52.2341C52.8982 52.2341 53.8855 53.221 53.8855 54.4341C53.8855 55.6472 52.8982 56.6341 51.6855 56.6341Z" fill="#2965D1" stroke="#2965D1" stroke-width="0.1"/>
<path d="M10.3965 53.6341H6.19434C5.75266 53.6341 5.39434 53.9924 5.39434 54.4341C5.39434 54.8758 5.75266 55.2341 6.19434 55.2341H10.3965C10.8382 55.2341 11.1965 54.8758 11.1965 54.4341C11.1965 53.9924 10.8382 53.6341 10.3965 53.6341Z" fill="#2965D1" stroke="#2965D1" stroke-width="0.1"/>
<path d="M19.043 53.6341H14.8408C14.3991 53.6341 14.0408 53.9924 14.0408 54.4341C14.0408 54.8758 14.3991 55.2341 14.8408 55.2341H19.043C19.4846 55.2341 19.843 54.8758 19.843 54.4341C19.843 53.9924 19.4846 53.6341 19.043 53.6341Z" fill="#2965D1" stroke="#2965D1" stroke-width="0.1"/>
<path d="M27.6895 53.6341H23.4873C23.0456 53.6341 22.6873 53.9924 22.6873 54.4341C22.6873 54.8758 23.0456 55.2341 23.4873 55.2341H27.6895C28.1311 55.2341 28.4895 54.8758 28.4895 54.4341C28.4895 53.9924 28.1311 53.6341 27.6895 53.6341Z" fill="#2965D1" stroke="#2965D1" stroke-width="0.1"/>
<path d="M47.2287 17.7352L47.2287 17.7352C48.6477 16.5879 49.4611 14.8788 49.4611 13.0454C49.4611 9.70863 46.7414 6.99443 43.3994 6.99443C40.0632 6.99443 37.3484 9.70871 37.3484 13.0454C37.3484 14.8841 38.1618 16.5972 39.5809 17.7449C39.7288 17.8647 39.907 17.923 40.084 17.923C40.3162 17.923 40.5475 17.8215 40.7058 17.6262L40.7058 17.6262C40.984 17.283 40.9309 16.7788 40.5871 16.5011C39.5462 15.6587 38.9484 14.3991 38.9484 13.0454C38.9484 10.5911 40.9456 8.59443 43.3994 8.59443C45.8592 8.59443 47.8611 10.5912 47.8611 13.0454C47.8611 14.3932 47.2643 15.6489 46.2225 16.4904L46.2225 16.4904C45.8787 16.7685 45.8256 17.2721 46.1037 17.6159C46.3809 17.9598 46.886 18.0117 47.2287 17.7352Z" fill="#2965D1" stroke="#2965D1" stroke-width="0.1"/>
<path d="M40.3194 19.9354L40.3194 19.9354C37.6107 18.7154 35.8596 16.0105 35.8596 13.0454C35.8596 8.88748 39.2425 5.50508 43.3994 5.50508C47.5633 5.50508 50.95 8.88754 50.95 13.0454C50.95 16.0041 49.1989 18.7051 46.4902 19.9251L46.4902 19.9251C46.0871 20.1069 45.9079 20.5803 46.0891 20.9834C46.2705 21.3877 46.7475 21.5641 47.1465 21.3845C50.429 19.9057 52.55 16.633 52.55 13.0454C52.55 8.00554 48.4455 3.90508 43.3994 3.90508C38.3601 3.90508 34.2596 8.00559 34.2596 13.0454C34.2596 16.6389 36.3805 19.9159 39.663 21.3947C39.7694 21.4426 39.8809 21.465 39.9912 21.465C40.2953 21.465 40.587 21.2901 40.7204 20.9937L40.6748 20.9731L40.7204 20.9936C40.9016 20.5906 40.7225 20.1171 40.3194 19.9354Z" fill="#2965D1" stroke="#2965D1" stroke-width="0.1"/>
<path d="M39.6536 24.7009L39.6537 24.7009C39.7349 24.727 39.8181 24.7395 39.8994 24.7395C40.2368 24.7395 40.5514 24.524 40.6609 24.1853L40.6609 24.1853C40.7963 23.765 40.5661 23.3139 40.1453 23.178L40.1299 23.2256L40.1452 23.178C35.7343 21.754 32.7707 17.6819 32.7707 13.0454C32.7707 7.18435 37.5384 2.41621 43.3994 2.41621C49.2664 2.41621 54.0398 7.1844 54.0398 13.0454C54.0398 17.6868 51.0724 21.7544 46.6566 23.1672L46.6566 23.1672C46.2359 23.3021 46.0035 23.752 46.1389 24.173C46.2723 24.5928 46.7184 24.826 47.144 24.6912L47.1441 24.6912C52.2254 23.0654 55.6398 18.385 55.6398 13.0454C55.6398 6.30193 50.1487 0.816211 43.3994 0.816211C36.656 0.816211 31.1707 6.30198 31.1707 13.0454C31.1707 18.3786 34.5802 23.0624 39.6536 24.7009Z" fill="#2965D1" stroke="#2965D1" stroke-width="0.1"/>
</svg>
