<svg width="88" height="88" viewBox="0 0 88 88" fill="none" xmlns="http://www.w3.org/2000/svg">
<path d="M43.1996 71.0771L43.1996 71.0771L43.2024 71.0765C54.9163 68.5607 64.1 58.0071 64.1 47.0431V28.4619C64.1 27.8328 63.6356 27.2996 63.0456 27.2995C55.2479 27.2889 48.193 24.7032 43.7104 20.2004L43.7101 20.2001C43.3084 19.8 42.6916 19.8 42.2899 20.2001L42.2897 20.2003C37.7974 24.7033 30.7519 27.2995 22.9545 27.2995L22.9525 27.2996C22.3658 27.3114 21.9 27.8308 21.9 28.4619V47.0325C21.9 57.9944 31.0802 68.5461 42.791 71.0645C42.8586 71.0885 42.9343 71.1 43 71.1C43.0673 71.1 43.142 71.0878 43.1996 71.0771ZM24.0091 29.6109C31.5137 29.3905 38.333 26.8716 43 22.6058C47.667 26.8716 54.4863 29.3905 61.9909 29.6109V47.0431C61.9909 56.6926 53.4995 66.393 43 68.7515C32.5005 66.393 24.0091 56.682 24.0091 47.0431V29.6109Z" fill="#3C00D0" stroke="#3C00D0" stroke-width="0.2"/>
<path d="M37.01 57.1H48.99C50.7101 57.1 52.1 55.628 52.1 53.8288V46.475C52.1 44.8788 51.0094 43.5593 49.57 43.2732V39.8165C49.57 36.0051 46.6301 32.9 43 32.9C39.3699 32.9 36.43 36.0051 36.43 39.8165V43.2732C34.9906 43.5593 33.9 44.8788 33.9 46.475V53.8288C33.9 55.628 35.2899 57.1 37.01 57.1ZM38.63 39.8165C38.63 37.2749 40.5902 35.2071 43 35.2071C45.4099 35.2071 47.37 37.2645 47.37 39.8165V43.2038H38.63V39.8165ZM36.1 46.475C36.1 45.9352 36.5101 45.5109 37.01 45.5109H37.53H48.47H48.99C49.4899 45.5109 49.9 45.9352 49.9 46.475V53.8288C49.9 54.3685 49.4899 54.7929 48.99 54.7929H37.01C36.5101 54.7929 36.1 54.3685 36.1 53.8288V46.475Z" fill="#3C00D0" stroke="#3C00D0" stroke-width="0.2"/>
<mask id="path-3-inside-1_2001_57" fill="white">
<path d="M85.4891 37.4691C83.9247 27.5306 78.8446 18.4838 71.173 11.9746C63.5015 5.46542 53.7482 1.92632 43.6876 2.00116C33.6269 2.076 23.9274 5.7598 16.3535 12.3824C8.77968 19.005 3.83474 28.1263 2.41831 38.087L4.57523 38.3938C5.91818 28.9497 10.6066 20.3015 17.7876 14.0225C24.9686 7.74339 34.165 4.25068 43.7038 4.17972C53.2426 4.10877 62.4899 7.46428 69.7635 13.6358C77.0371 19.8074 81.8537 28.3849 83.337 37.8079L85.4891 37.4691Z"/>
</mask>
<path d="M85.4891 37.4691C83.9247 27.5306 78.8446 18.4838 71.173 11.9746C63.5015 5.46542 53.7482 1.92632 43.6876 2.00116C33.6269 2.076 23.9274 5.7598 16.3535 12.3824C8.77968 19.005 3.83474 28.1263 2.41831 38.087L4.57523 38.3938C5.91818 28.9497 10.6066 20.3015 17.7876 14.0225C24.9686 7.74339 34.165 4.25068 43.7038 4.17972C53.2426 4.10877 62.4899 7.46428 69.7635 13.6358C77.0371 19.8074 81.8537 28.3849 83.337 37.8079L85.4891 37.4691Z" stroke="#00CB51" stroke-width="6" mask="url(#path-3-inside-1_2001_57)"/>
<mask id="path-4-inside-2_2001_57" fill="white">
<path d="M2.25675 48.6378C3.3677 58.6372 8.03121 67.9056 15.3989 74.7569C22.7665 81.6081 32.3488 85.587 42.4025 85.9697C52.4561 86.3523 62.3131 83.1133 70.1802 76.842C78.0474 70.5706 83.4019 61.6835 85.2697 51.7975L83.129 51.393C81.358 60.7662 76.2813 69.1923 68.8222 75.1384C61.3631 81.0845 52.0175 84.1554 42.4853 83.7926C32.9532 83.4298 23.868 79.6573 16.8825 73.1615C9.89698 66.6656 5.47537 57.878 4.42204 48.3973L2.25675 48.6378Z"/>
</mask>
<path d="M2.25675 48.6378C3.3677 58.6372 8.03121 67.9056 15.3989 74.7569C22.7665 81.6081 32.3488 85.587 42.4025 85.9697C52.4561 86.3523 62.3131 83.1133 70.1802 76.842C78.0474 70.5706 83.4019 61.6835 85.2697 51.7975L83.129 51.393C81.358 60.7662 76.2813 69.1923 68.8222 75.1384C61.3631 81.0845 52.0175 84.1554 42.4853 83.7926C32.9532 83.4298 23.868 79.6573 16.8825 73.1615C9.89698 66.6656 5.47537 57.878 4.42204 48.3973L2.25675 48.6378Z" stroke="#00CB51" stroke-width="6" mask="url(#path-4-inside-2_2001_57)"/>
<circle cx="84" cy="37" r="3" fill="#00CB51"/>
<circle cx="3" cy="48" r="3" fill="#00CB51"/>
</svg>
