<svg width="88" height="88" viewBox="0 0 88 88" fill="none" xmlns="http://www.w3.org/2000/svg">
<path d="M43.1996 70.9433L43.1996 70.9433L43.2024 70.9427C54.9163 68.4269 64.1 57.8733 64.1 46.9093V28.3281C64.1 27.699 63.6356 27.1658 63.0456 27.1658C55.2479 27.1552 48.193 24.5694 43.7104 20.0666L43.7101 20.0663C43.3084 19.6662 42.6916 19.6662 42.2899 20.0663L42.2897 20.0665C37.7974 24.5695 30.7519 27.1658 22.9545 27.1657L22.9525 27.1658C22.3658 27.1776 21.9 27.697 21.9 28.3281V46.8987C21.9 57.8606 31.0802 68.4123 42.791 70.9307C42.8586 70.9547 42.9343 70.9662 43 70.9662C43.0673 70.9662 43.142 70.954 43.1996 70.9433ZM24.0091 29.4771C31.5137 29.2567 38.333 26.7378 43 22.472C47.667 26.7378 54.4863 29.2567 61.9909 29.4771V46.9093C61.9909 56.5588 53.4995 66.2592 43 68.6177C32.5005 66.2592 24.0091 56.5482 24.0091 46.9093V29.4771Z" fill="#2965D1" stroke="#2965D1" stroke-width="0.2"/>
<path d="M37.01 56.9662H48.99C50.7101 56.9662 52.1 55.4942 52.1 53.695V46.3412C52.1 44.7451 51.0094 43.4255 49.57 43.1394V39.6827C49.57 35.8713 46.6301 32.7662 43 32.7662C39.3699 32.7662 36.43 35.8713 36.43 39.6827V43.1394C34.9906 43.4255 33.9 44.7451 33.9 46.3412V53.695C33.9 55.4942 35.2899 56.9662 37.01 56.9662ZM38.63 39.6827C38.63 37.1411 40.5902 35.0733 43 35.0733C45.4099 35.0733 47.37 37.1307 47.37 39.6827V43.07H38.63V39.6827ZM36.1 46.3412C36.1 45.8014 36.5101 45.3771 37.01 45.3771H37.53H48.47H48.99C49.4899 45.3771 49.9 45.8014 49.9 46.3412V53.695C49.9 54.2348 49.4899 54.6591 48.99 54.6591H37.01C36.5101 54.6591 36.1 54.2348 36.1 53.695V46.3412Z" fill="#2965D1" stroke="#2965D1" stroke-width="0.2"/>
<mask id="path-3-inside-1_2001_67" fill="white">
<path d="M85.4891 37.3353C83.9247 27.3968 78.8446 18.35 71.173 11.8408C63.5015 5.33163 53.7482 1.79254 43.6876 1.86737C33.6269 1.94221 23.9274 5.62601 16.3535 12.2486C8.77968 18.8712 3.83474 27.9925 2.41831 37.9533L4.57523 38.26C5.91818 28.8159 10.6066 20.1677 17.7876 13.8887C24.9686 7.6096 34.165 4.11689 43.7038 4.04593C53.2426 3.97498 62.4899 7.33049 69.7635 13.502C77.0371 19.6736 81.8537 28.2511 83.337 37.6741L85.4891 37.3353Z"/>
</mask>
<path d="M85.4891 37.3353C83.9247 27.3968 78.8446 18.35 71.173 11.8408C63.5015 5.33163 53.7482 1.79254 43.6876 1.86737C33.6269 1.94221 23.9274 5.62601 16.3535 12.2486C8.77968 18.8712 3.83474 27.9925 2.41831 37.9533L4.57523 38.26C5.91818 28.8159 10.6066 20.1677 17.7876 13.8887C24.9686 7.6096 34.165 4.11689 43.7038 4.04593C53.2426 3.97498 62.4899 7.33049 69.7635 13.502C77.0371 19.6736 81.8537 28.2511 83.337 37.6741L85.4891 37.3353Z" stroke="#00CB51" stroke-width="6" mask="url(#path-3-inside-1_2001_67)"/>
<mask id="path-4-inside-2_2001_67" fill="white">
<path d="M2.25675 48.504C3.3677 58.5034 8.03121 67.7718 15.3989 74.6231C22.7665 81.4743 32.3488 85.4532 42.4025 85.8359C52.4561 86.2185 62.3131 82.9796 70.1802 76.7082C78.0474 70.4368 83.4019 61.5497 85.2697 51.6637L83.129 51.2592C81.358 60.6324 76.2813 69.0585 68.8222 75.0046C61.3631 80.9507 52.0175 84.0216 42.4853 83.6588C32.9532 83.296 23.868 79.5235 16.8825 73.0277C9.89698 66.5318 5.47537 57.7442 4.42204 48.2635L2.25675 48.504Z"/>
</mask>
<path d="M2.25675 48.504C3.3677 58.5034 8.03121 67.7718 15.3989 74.6231C22.7665 81.4743 32.3488 85.4532 42.4025 85.8359C52.4561 86.2185 62.3131 82.9796 70.1802 76.7082C78.0474 70.4368 83.4019 61.5497 85.2697 51.6637L83.129 51.2592C81.358 60.6324 76.2813 69.0585 68.8222 75.0046C61.3631 80.9507 52.0175 84.0216 42.4853 83.6588C32.9532 83.296 23.868 79.5235 16.8825 73.0277C9.89698 66.5318 5.47537 57.7442 4.42204 48.2635L2.25675 48.504Z" stroke="#00CB51" stroke-width="6" mask="url(#path-4-inside-2_2001_67)"/>
<circle cx="84" cy="36.8662" r="3" fill="#00CB51"/>
<circle cx="3" cy="47.8662" r="3" fill="#00CB51"/>
</svg>
