<svg width="57" height="57" viewBox="0 0 57 57" fill="none" xmlns="http://www.w3.org/2000/svg">
<path d="M28.5 4.75C34.4405 11.2536 37.8165 19.6936 38 28.5C37.8165 37.3064 34.4405 45.7464 28.5 52.25M28.5 4.75C22.5595 11.2536 19.1835 19.6936 19 28.5C19.1835 37.3064 22.5595 45.7464 28.5 52.25M28.5 4.75C15.3832 4.75 4.75 15.3832 4.75 28.5C4.75 41.6168 15.3832 52.25 28.5 52.25M28.5 4.75C41.6168 4.75 52.25 15.3832 52.25 28.5C52.25 41.6168 41.6168 52.25 28.5 52.25M5.93755 21.375H51.0625M5.9375 35.625H51.0625" stroke="#3C00D0" stroke-width="2" stroke-linecap="round" stroke-linejoin="round"/>
</svg>
