<svg width="57" height="58" viewBox="0 0 57 58" fill="none" xmlns="http://www.w3.org/2000/svg">
<path d="M28.5 5.61621C34.4405 12.1198 37.8165 20.5598 38 29.3662C37.8165 38.1726 34.4405 46.6126 28.5 53.1162M28.5 5.61621C22.5595 12.1198 19.1835 20.5598 19 29.3662C19.1835 38.1726 22.5595 46.6126 28.5 53.1162M28.5 5.61621C15.3832 5.61621 4.75 16.2494 4.75 29.3662C4.75 42.483 15.3832 53.1162 28.5 53.1162M28.5 5.61621C41.6168 5.61621 52.25 16.2494 52.25 29.3662C52.25 42.483 41.6168 53.1162 28.5 53.1162M5.93755 22.2412H51.0625M5.9375 36.4912H51.0625" stroke="#2965D1" stroke-width="2" stroke-linecap="round" stroke-linejoin="round"/>
</svg>
