<svg width="152" height="72" viewBox="0 0 152 72" fill="none" xmlns="http://www.w3.org/2000/svg">
<path d="M98.4517 69.7611H97.644V67.0753C97.644 66.977 97.6247 66.8797 97.587 66.7889C97.5494 66.698 97.4943 66.6155 97.4248 66.546C97.3553 66.4765 97.2727 66.4213 97.1819 66.3837C97.0911 66.3461 96.9937 66.3268 96.8954 66.3268H96.4338L95.4104 63.4601V48.6835L96.4338 45.8168H97.6429C97.7412 45.8168 97.8385 45.7974 97.9294 45.7598C98.0202 45.7222 98.1027 45.667 98.1722 45.5975C98.2417 45.528 98.2969 45.4455 98.3345 45.3546C98.3721 45.2638 98.3915 45.1665 98.3915 45.0682V41.6338C98.3915 41.5355 98.3721 41.4382 98.3345 41.3473C98.2969 41.2565 98.2418 41.174 98.1723 41.1044C98.1027 41.0349 98.0202 40.9797 97.9294 40.9421C97.8385 40.9045 97.7412 40.8851 97.6429 40.8851H96.6551V40.5843C96.6542 39.7761 96.3327 39.0012 95.7612 38.4297C95.1898 37.8582 94.4149 37.5368 93.6067 37.5359H93.5275L77.1437 29.0833C77.0375 29.0286 76.9198 29 76.8003 29C76.6809 29 76.5632 29.0286 76.457 29.0833L60.0726 37.5359H59.9936C59.1854 37.5369 58.4107 37.8584 57.8393 38.4299C57.2679 39.0014 56.9466 39.7762 56.9457 40.5843V40.8851H55.9579C55.8596 40.8851 55.7622 40.9045 55.6714 40.9421C55.5806 40.9798 55.498 41.0349 55.4285 41.1044C55.359 41.174 55.3039 41.2565 55.2662 41.3473C55.2286 41.4382 55.2093 41.5355 55.2093 41.6338V45.0682C55.2093 45.1665 55.2286 45.2638 55.2663 45.3547C55.3039 45.4455 55.359 45.528 55.4285 45.5975C55.498 45.6671 55.5806 45.7222 55.6714 45.7598C55.7622 45.7974 55.8596 45.8168 55.9579 45.8168H57.167L58.1904 48.6835V63.46L57.167 66.3267H56.7048C56.6065 66.3267 56.5092 66.3461 56.4183 66.3837C56.3275 66.4213 56.2449 66.4764 56.1754 66.546C56.1059 66.6155 56.0507 66.698 56.0131 66.7888C55.9755 66.8797 55.9561 66.977 55.9561 67.0753V69.7611H55.149C54.9505 69.7611 54.7601 69.84 54.6197 69.9804C54.4793 70.1208 54.4004 70.3112 54.4004 70.5098C54.4004 70.7083 54.4793 70.8987 54.6197 71.0391C54.7601 71.1795 54.9505 71.2584 55.149 71.2584H98.4517C98.6503 71.2584 98.8407 71.1795 98.9811 71.0391C99.1215 70.8987 99.2004 70.7083 99.2004 70.5098C99.2004 70.3112 99.1215 70.1208 98.9811 69.9804C98.8407 69.84 98.6503 69.7611 98.4517 69.7611ZM82.2956 66.3268L81.2723 63.4601V48.6835L82.2956 45.8168H85.4426L86.4659 48.6835V63.4601L85.4426 66.3267L82.2956 66.3268ZM68.1581 66.3268L67.1342 63.46V48.6835L68.1581 45.8168H71.3046L72.3285 48.6835V63.46L71.3046 66.3268H68.1581ZM59.6876 49.3032H65.6369V62.8404H59.6876V49.3032ZM73.8258 49.3032H79.775V62.8404H73.8258V49.3032ZM79.9961 47.8059H73.6046L72.8941 45.8168H80.7062L79.9961 47.8059ZM73.6046 64.3377H79.9961L80.7062 66.3268H72.894L73.6046 64.3377ZM93.9131 62.8404H87.9632V49.3032H93.9131V62.8404ZM87.7422 64.3377H94.1342L94.8443 66.3268H87.0321L87.7422 64.3377ZM94.1342 47.8059H87.7422L87.0321 45.8168H94.8443L94.1342 47.8059ZM76.8004 30.5911L90.2618 37.5359H63.3384L76.8004 30.5911ZM58.443 40.5843C58.4433 40.1731 58.6068 39.7789 58.8975 39.4881C59.1882 39.1973 59.5824 39.0337 59.9936 39.0332H93.6067C94.0179 39.0337 94.4122 39.1973 94.703 39.488C94.9937 39.7788 95.1573 40.1731 95.1578 40.5843V40.8851H58.443V40.5843ZM56.7066 42.3824H96.8942V44.3195H56.7066V42.3824ZM66.5686 45.8168L65.8581 47.8059H59.4665L58.7565 45.8168L66.5686 45.8168ZM59.4665 64.3377H65.8581L66.5686 66.3268H58.7565L59.4665 64.3377ZM57.4534 69.7611V67.824H96.1467V69.7611L57.4534 69.7611Z" fill="#050505"/>
<path d="M43.1663 63.2462L35.8626 50.4252C35.5339 49.8166 35.0687 49.2913 34.5031 48.8897C33.9374 48.488 33.2863 48.2209 32.6001 48.109C32.6573 47.8472 32.6879 47.5804 32.6915 47.3126C32.6828 46.5344 32.4626 45.7729 32.0542 45.1087L28.965 37.121C28.4193 35.676 27.4427 34.4307 26.1655 33.5514C24.8884 32.6721 23.3715 32.2007 21.8175 32.2002C20.2635 32.1996 18.7463 32.67 17.4685 33.5483C16.1907 34.4267 15.2132 35.6713 14.6665 37.116C14.6665 37.116 11.6157 45.0403 11.6114 45.0547C11.1828 45.7317 10.951 46.5131 10.9415 47.3126C10.944 47.5802 10.9729 47.847 11.0277 48.109C10.3449 48.2207 9.6969 48.4865 9.13369 48.8859C8.57048 49.2853 8.10703 49.8078 7.77902 50.413L0.458691 63.2606C0.142769 63.8464 -0.0148858 64.5034 0.00110607 65.1676C0.0170979 65.8319 0.20619 66.4807 0.549937 67.0507C0.893683 67.6208 1.38034 68.0926 1.96244 68.4202C2.54454 68.7478 3.2022 68.9199 3.87127 68.9198H8.37569L8.38367 69.0019C8.44937 69.584 8.73258 70.1205 9.17732 70.5052C9.62206 70.89 10.196 71.095 10.7856 71.0798H32.8473C33.437 71.095 34.0109 70.89 34.4556 70.5052C34.9004 70.1205 35.1836 69.584 35.2493 69.0019L35.2572 68.9198H39.7617C40.4324 68.9204 41.0917 68.7479 41.675 68.4192C42.2584 68.0905 42.7457 67.6169 43.0893 67.0449C43.4328 66.4729 43.6208 65.822 43.6348 65.1561C43.6488 64.4901 43.4884 63.832 43.1692 63.2462H43.1663ZM34.4771 50.9342C34.422 50.9342 34.3684 50.9177 34.3126 50.9177H30.8623C31.3317 50.5057 31.7351 50.025 32.0585 49.4921C32.5482 49.5247 33.023 49.6728 33.4436 49.9239C33.8642 50.1751 34.2185 50.5222 34.4771 50.9364V50.9342ZM15.2139 50.9198C15.1698 50.8702 15.1191 50.8268 15.0631 50.791C13.3405 49.8334 12.3915 48.5978 12.3915 47.3126C12.3915 45.9223 13.5159 44.6443 15.2915 43.7227V45.329C15.293 46.4609 15.5931 47.5726 16.1618 48.5535C16.7305 49.5344 17.548 50.3503 18.5329 50.9198H15.2139ZM16.7415 43.1028C20.0346 42.0055 23.5983 42.0055 26.8915 43.1028V45.329C26.8915 46.6657 26.3568 47.9477 25.405 48.8929C24.4533 49.838 23.1624 50.369 21.8165 50.369C20.4705 50.369 19.1796 49.838 18.2279 48.8929C17.2762 47.9477 16.7415 46.6657 16.7415 45.329V43.1028ZM28.3415 45.329V43.7198C30.117 44.6414 31.2415 45.9194 31.2415 47.3098C31.2415 48.631 30.1967 49.937 28.3748 50.8939C28.3639 50.8997 28.3574 50.9105 28.3465 50.917H25.1C26.0845 50.3476 26.9017 49.5322 27.4704 48.5519C28.0391 47.5715 28.3394 46.4604 28.3415 45.329ZM16.0201 37.6315C16.461 36.4585 17.2526 35.4475 18.2887 34.734C19.3247 34.0205 20.5557 33.6387 21.8165 33.6398C23.0752 33.6499 24.3016 34.0367 25.3355 34.7497C26.3695 35.4627 27.1629 36.4688 27.6121 37.6366L29.5885 42.7486C27.2162 41.4338 24.5324 40.7747 21.8165 40.8398C19.1016 40.7741 16.4187 41.432 14.0466 42.745L16.0201 37.6315ZM11.5664 49.4942C11.8851 50.0279 12.2858 50.5089 12.754 50.9198H9.32036C9.26381 50.9198 9.21017 50.9328 9.15507 50.9364C9.41311 50.5234 9.76633 50.1772 10.1856 49.9265C10.6049 49.6757 11.0781 49.5276 11.5664 49.4942ZM3.87127 67.4798C3.45374 67.4803 3.04321 67.3734 2.67955 67.1697C2.31588 66.966 2.01146 66.6724 1.79584 66.3173C1.58022 65.9622 1.46074 65.5578 1.44901 65.1433C1.43728 64.7288 1.5337 64.3184 1.72889 63.9518L7.03444 54.6379L8.24084 67.4798H3.87127ZM32.8473 69.6398H10.7856C10.5583 69.6504 10.3351 69.5776 10.1583 69.4352C9.98159 69.2929 9.86372 69.091 9.82714 68.868L8.36192 53.2678C8.35257 53.1601 8.36628 53.0517 8.40214 52.9497C8.438 52.8477 8.49521 52.7544 8.56999 52.6759C8.66611 52.5744 8.78248 52.4938 8.91167 52.4394C9.04086 52.385 9.18005 52.3579 9.32036 52.3598H34.3126C34.4529 52.3579 34.5921 52.385 34.7213 52.4394C34.8505 52.4938 34.9668 52.5744 35.0629 52.6759C35.1377 52.7544 35.1949 52.8477 35.2308 52.9497C35.2667 53.0517 35.2804 53.1601 35.271 53.2678L33.8058 68.868C33.7692 69.091 33.6513 69.2929 33.4746 69.4352C33.2979 69.5776 33.0746 69.6504 32.8473 69.6398ZM41.8373 66.3106C41.6239 66.6682 41.3202 66.9642 40.9561 67.1693C40.592 67.3744 40.1802 67.4815 39.7617 67.4798H35.3921L36.5985 54.6408L41.899 63.9403C42.0982 64.3062 42.1975 64.7175 42.1871 65.1333C42.1767 65.5491 42.0568 65.955 41.8395 66.3106H41.8373Z" fill="#050505"/>
<path d="M21.817 58.1196C21.2434 58.1196 20.6827 58.2885 20.2058 58.605C19.7289 58.9215 19.3572 59.3712 19.1377 59.8975C18.9182 60.4238 18.8608 61.0028 18.9727 61.5615C19.0846 62.1202 19.3608 62.6333 19.7664 63.0361C20.172 63.4389 20.6887 63.7132 21.2512 63.8243C21.8138 63.9354 22.3969 63.8784 22.9268 63.6604C23.4567 63.4424 23.9096 63.0733 24.2283 62.5997C24.5469 62.1261 24.717 61.5692 24.717 60.9996C24.717 60.2358 24.4115 59.5033 23.8676 58.9632C23.3237 58.4231 22.5861 58.1196 21.817 58.1196ZM21.817 62.4396C21.5302 62.4396 21.2499 62.3552 21.0114 62.1969C20.773 62.0387 20.5871 61.8138 20.4774 61.5507C20.3676 61.2876 20.3389 60.998 20.3949 60.7187C20.4508 60.4394 20.5889 60.1828 20.7917 59.9814C20.9945 59.78 21.2528 59.6429 21.5341 59.5873C21.8154 59.5317 22.1069 59.5603 22.3719 59.6692C22.6368 59.7782 22.8633 59.9628 23.0226 60.1996C23.182 60.4364 23.267 60.7148 23.267 60.9996C23.267 61.3815 23.1142 61.7478 22.8423 62.0179C22.5704 62.2879 22.2016 62.4396 21.817 62.4396Z" fill="#050505"/>
<path d="M22 29V13.2037C22 11.5468 23.3431 10.2037 25 10.2037H59C60.6569 10.2037 62 8.86056 62 7.2037V0" stroke="#050505"/>
<path d="M130 29V13.2037C130 11.5468 128.657 10.2037 127 10.2037H93C91.3431 10.2037 90 8.86056 90 7.2037V0" stroke="#050505"/>
<path d="M76 0V24.5" stroke="#050505"/>
<rect x="116.75" y="36.75" width="34.5" height="31.5" rx="3.25" stroke="#050505" stroke-width="1.5"/>
<path d="M129.091 50.6429H127C126.448 50.6429 126 51.0906 126 51.6429V55.3095C126 55.8618 126.448 56.3095 127 56.3095H129.891C129.995 56.3095 130.098 56.3257 130.197 56.3575L140.075 59.5326C140.72 59.7401 141.381 59.2586 141.381 58.5806V48.344C141.381 47.6742 140.735 47.1937 140.094 47.3862L129.379 50.6007C129.285 50.6286 129.189 50.6429 129.091 50.6429Z" stroke="#050505" stroke-width="1.5" stroke-linecap="round"/>
<path d="M129.238 50.6428V56.3095" stroke="#050505" stroke-width="1.5" stroke-linecap="round"/>
<path d="M127.214 56.7144V63.0001C127.214 63.5524 127.662 64.0001 128.214 64.0001H129.048C129.6 64.0001 130.048 63.5524 130.048 63.0001V56.7144" stroke="#050505" stroke-width="1.5" stroke-linecap="round"/>
<path d="M121 41H126" stroke="#050505" stroke-width="1.5" stroke-linecap="round"/>
<path d="M130 41H147" stroke="#050505" stroke-width="1.5" stroke-linecap="round"/>
<path d="M117 45L151 45" stroke="#050505" stroke-width="1.5" stroke-linecap="round"/>
</svg>
