<svg width="152" height="80" viewBox="0 0 152 80" fill="none" xmlns="http://www.w3.org/2000/svg">
<path d="M98.4517 77.7611H97.644V75.0753C97.644 74.977 97.6247 74.8797 97.587 74.7889C97.5494 74.698 97.4943 74.6155 97.4248 74.546C97.3553 74.4765 97.2727 74.4213 97.1819 74.3837C97.0911 74.3461 96.9937 74.3268 96.8954 74.3268H96.4338L95.4104 71.4601V56.6835L96.4338 53.8168H97.6429C97.7412 53.8168 97.8385 53.7974 97.9294 53.7598C98.0202 53.7222 98.1027 53.667 98.1722 53.5975C98.2417 53.528 98.2969 53.4455 98.3345 53.3546C98.3721 53.2638 98.3915 53.1665 98.3915 53.0682V49.6338C98.3915 49.5355 98.3721 49.4382 98.3345 49.3473C98.2969 49.2565 98.2418 49.174 98.1723 49.1044C98.1027 49.0349 98.0202 48.9797 97.9294 48.9421C97.8385 48.9045 97.7412 48.8851 97.6429 48.8851H96.6551V48.5843C96.6542 47.7761 96.3327 47.0012 95.7612 46.4297C95.1898 45.8582 94.4149 45.5368 93.6067 45.5359H93.5275L77.1437 37.0833C77.0375 37.0286 76.9198 37 76.8003 37C76.6809 37 76.5632 37.0286 76.457 37.0833L60.0726 45.5359H59.9936C59.1854 45.5369 58.4107 45.8584 57.8393 46.4299C57.2679 47.0014 56.9466 47.7762 56.9457 48.5843V48.8851H55.9579C55.8596 48.8851 55.7622 48.9045 55.6714 48.9421C55.5806 48.9798 55.498 49.0349 55.4285 49.1044C55.359 49.174 55.3039 49.2565 55.2662 49.3473C55.2286 49.4382 55.2093 49.5355 55.2093 49.6338V53.0682C55.2093 53.1665 55.2286 53.2638 55.2663 53.3547C55.3039 53.4455 55.359 53.528 55.4285 53.5975C55.498 53.6671 55.5806 53.7222 55.6714 53.7598C55.7622 53.7974 55.8596 53.8168 55.9579 53.8168H57.167L58.1904 56.6835V71.46L57.167 74.3267H56.7048C56.6065 74.3267 56.5092 74.3461 56.4183 74.3837C56.3275 74.4213 56.2449 74.4764 56.1754 74.546C56.1059 74.6155 56.0507 74.698 56.0131 74.7888C55.9755 74.8797 55.9561 74.977 55.9561 75.0753V77.7611H55.149C54.9505 77.7611 54.7601 77.84 54.6197 77.9804C54.4793 78.1208 54.4004 78.3112 54.4004 78.5098C54.4004 78.7083 54.4793 78.8987 54.6197 79.0391C54.7601 79.1795 54.9505 79.2584 55.149 79.2584H98.4517C98.6503 79.2584 98.8407 79.1795 98.9811 79.0391C99.1215 78.8987 99.2004 78.7083 99.2004 78.5098C99.2004 78.3112 99.1215 78.1208 98.9811 77.9804C98.8407 77.84 98.6503 77.7611 98.4517 77.7611ZM82.2956 74.3268L81.2723 71.4601V56.6835L82.2956 53.8168H85.4426L86.4659 56.6835V71.4601L85.4426 74.3267L82.2956 74.3268ZM68.1581 74.3268L67.1342 71.46V56.6835L68.1581 53.8168H71.3046L72.3285 56.6835V71.46L71.3046 74.3268H68.1581ZM59.6876 57.3032H65.6369V70.8404H59.6876V57.3032ZM73.8258 57.3032H79.775V70.8404H73.8258V57.3032ZM79.9961 55.8059H73.6046L72.8941 53.8168H80.7062L79.9961 55.8059ZM73.6046 72.3377H79.9961L80.7062 74.3268H72.894L73.6046 72.3377ZM93.9131 70.8404H87.9632V57.3032H93.9131V70.8404ZM87.7422 72.3377H94.1342L94.8443 74.3268H87.0321L87.7422 72.3377ZM94.1342 55.8059H87.7422L87.0321 53.8168H94.8443L94.1342 55.8059ZM76.8004 38.5911L90.2618 45.5359H63.3384L76.8004 38.5911ZM58.443 48.5843C58.4433 48.1731 58.6068 47.7789 58.8975 47.4881C59.1882 47.1973 59.5824 47.0337 59.9936 47.0332H93.6067C94.0179 47.0337 94.4122 47.1973 94.703 47.488C94.9937 47.7788 95.1573 48.1731 95.1578 48.5843V48.8851H58.443V48.5843ZM56.7066 50.3824H96.8942V52.3195H56.7066V50.3824ZM66.5686 53.8168L65.8581 55.8059H59.4665L58.7565 53.8168L66.5686 53.8168ZM59.4665 72.3377H65.8581L66.5686 74.3268H58.7565L59.4665 72.3377ZM57.4534 77.7611V75.824H96.1467V77.7611L57.4534 77.7611Z" fill="#666666" fill-opacity="0.6"/>
<path d="M43.1663 71.2462L35.8626 58.4252C35.5339 57.8166 35.0687 57.2913 34.5031 56.8897C33.9374 56.488 33.2863 56.2209 32.6001 56.109C32.6573 55.8472 32.6879 55.5804 32.6915 55.3126C32.6828 54.5344 32.4626 53.7729 32.0542 53.1087L28.965 45.121C28.4193 43.676 27.4427 42.4307 26.1655 41.5514C24.8884 40.6721 23.3715 40.2007 21.8175 40.2002C20.2635 40.1996 18.7463 40.67 17.4685 41.5483C16.1907 42.4267 15.2132 43.6713 14.6665 45.116C14.6665 45.116 11.6157 53.0403 11.6114 53.0547C11.1828 53.7317 10.951 54.5131 10.9415 55.3126C10.944 55.5802 10.9729 55.847 11.0277 56.109C10.3449 56.2207 9.6969 56.4865 9.13369 56.8859C8.57048 57.2853 8.10703 57.8078 7.77902 58.413L0.458691 71.2606C0.142769 71.8464 -0.0148858 72.5034 0.00110607 73.1676C0.0170979 73.8319 0.20619 74.4807 0.549937 75.0507C0.893683 75.6208 1.38034 76.0926 1.96244 76.4202C2.54454 76.7478 3.2022 76.9199 3.87127 76.9198H8.37569L8.38367 77.0019C8.44937 77.584 8.73258 78.1205 9.17732 78.5052C9.62206 78.89 10.196 79.095 10.7856 79.0798H32.8473C33.437 79.095 34.0109 78.89 34.4556 78.5052C34.9004 78.1205 35.1836 77.584 35.2493 77.0019L35.2572 76.9198H39.7617C40.4324 76.9204 41.0917 76.7479 41.675 76.4192C42.2584 76.0905 42.7457 75.6169 43.0893 75.0449C43.4328 74.4729 43.6208 73.822 43.6348 73.1561C43.6488 72.4901 43.4884 71.832 43.1692 71.2462H43.1663ZM34.4771 58.9342C34.422 58.9342 34.3684 58.9177 34.3126 58.9177H30.8623C31.3317 58.5057 31.7351 58.025 32.0585 57.4921C32.5482 57.5247 33.023 57.6728 33.4436 57.9239C33.8642 58.1751 34.2185 58.5222 34.4771 58.9364V58.9342ZM15.2139 58.9198C15.1698 58.8702 15.1191 58.8268 15.0631 58.791C13.3405 57.8334 12.3915 56.5978 12.3915 55.3126C12.3915 53.9223 13.5159 52.6443 15.2915 51.7227V53.329C15.293 54.4609 15.5931 55.5726 16.1618 56.5535C16.7305 57.5344 17.548 58.3503 18.5329 58.9198H15.2139ZM16.7415 51.1028C20.0346 50.0055 23.5983 50.0055 26.8915 51.1028V53.329C26.8915 54.6657 26.3568 55.9477 25.405 56.8929C24.4533 57.838 23.1624 58.369 21.8165 58.369C20.4705 58.369 19.1796 57.838 18.2279 56.8929C17.2762 55.9477 16.7415 54.6657 16.7415 53.329V51.1028ZM28.3415 53.329V51.7198C30.117 52.6414 31.2415 53.9194 31.2415 55.3098C31.2415 56.631 30.1967 57.937 28.3748 58.8939C28.3639 58.8997 28.3574 58.9105 28.3465 58.917H25.1C26.0845 58.3476 26.9017 57.5322 27.4704 56.5519C28.0391 55.5715 28.3394 54.4604 28.3415 53.329ZM16.0201 45.6315C16.461 44.4585 17.2526 43.4475 18.2887 42.734C19.3247 42.0205 20.5557 41.6387 21.8165 41.6398C23.0752 41.6499 24.3016 42.0367 25.3355 42.7497C26.3695 43.4627 27.1629 44.4688 27.6121 45.6366L29.5885 50.7486C27.2162 49.4338 24.5324 48.7747 21.8165 48.8398C19.1016 48.7741 16.4187 49.432 14.0466 50.745L16.0201 45.6315ZM11.5664 57.4942C11.8851 58.0279 12.2858 58.5089 12.754 58.9198H9.32036C9.26381 58.9198 9.21017 58.9328 9.15507 58.9364C9.41311 58.5234 9.76633 58.1772 10.1856 57.9265C10.6049 57.6757 11.0781 57.5276 11.5664 57.4942ZM3.87127 75.4798C3.45374 75.4803 3.04321 75.3734 2.67955 75.1697C2.31588 74.966 2.01146 74.6724 1.79584 74.3173C1.58022 73.9622 1.46074 73.5578 1.44901 73.1433C1.43728 72.7288 1.5337 72.3184 1.72889 71.9518L7.03444 62.6379L8.24084 75.4798H3.87127ZM32.8473 77.6398H10.7856C10.5583 77.6504 10.3351 77.5776 10.1583 77.4352C9.98159 77.2929 9.86372 77.091 9.82714 76.868L8.36192 61.2678C8.35257 61.1601 8.36628 61.0517 8.40214 60.9497C8.438 60.8477 8.49521 60.7544 8.56999 60.6759C8.66611 60.5744 8.78248 60.4938 8.91167 60.4394C9.04086 60.385 9.18005 60.3579 9.32036 60.3598H34.3126C34.4529 60.3579 34.5921 60.385 34.7213 60.4394C34.8505 60.4938 34.9668 60.5744 35.0629 60.6759C35.1377 60.7544 35.1949 60.8477 35.2308 60.9497C35.2667 61.0517 35.2804 61.1601 35.271 61.2678L33.8058 76.868C33.7692 77.091 33.6513 77.2929 33.4746 77.4352C33.2979 77.5776 33.0746 77.6504 32.8473 77.6398ZM41.8373 74.3106C41.6239 74.6682 41.3202 74.9642 40.9561 75.1693C40.592 75.3744 40.1802 75.4815 39.7617 75.4798H35.3921L36.5985 62.6408L41.899 71.9403C42.0982 72.3062 42.1975 72.7175 42.1871 73.1333C42.1767 73.5491 42.0568 73.955 41.8395 74.3106H41.8373Z" fill="#666666" fill-opacity="0.6"/>
<path d="M21.817 66.1196C21.2434 66.1196 20.6827 66.2885 20.2058 66.605C19.7289 66.9215 19.3572 67.3712 19.1377 67.8975C18.9182 68.4238 18.8608 69.0028 18.9727 69.5615C19.0846 70.1202 19.3608 70.6333 19.7664 71.0361C20.172 71.4389 20.6887 71.7132 21.2512 71.8243C21.8138 71.9354 22.3969 71.8784 22.9268 71.6604C23.4567 71.4424 23.9096 71.0733 24.2283 70.5997C24.5469 70.1261 24.717 69.5692 24.717 68.9996C24.717 68.2358 24.4115 67.5033 23.8676 66.9632C23.3237 66.4231 22.5861 66.1196 21.817 66.1196ZM21.817 70.4396C21.5302 70.4396 21.2499 70.3552 21.0114 70.1969C20.773 70.0387 20.5871 69.8138 20.4774 69.5507C20.3676 69.2876 20.3389 68.998 20.3949 68.7187C20.4508 68.4394 20.5889 68.1828 20.7917 67.9814C20.9945 67.78 21.2528 67.6429 21.5341 67.5873C21.8154 67.5317 22.1069 67.5603 22.3719 67.6692C22.6368 67.7782 22.8633 67.9628 23.0226 68.1996C23.182 68.4364 23.267 68.7148 23.267 68.9996C23.267 69.3815 23.1142 69.7478 22.8423 70.0179C22.5704 70.2879 22.2016 70.4396 21.817 70.4396Z" fill="#666666" fill-opacity="0.6"/>
<path d="M22 37V21.2037C22 19.5468 23.3431 18.2037 25 18.2037H59C60.6569 18.2037 62 16.8606 62 15.2037V8" stroke="#A3A3A3"/>
<path d="M130 37V21.2037C130 19.5468 128.657 18.2037 127 18.2037H93C91.3431 18.2037 90 16.8606 90 15.2037V8" stroke="#A3A3A3"/>
<path d="M76 8V32.5" stroke="#A3A3A3"/>
<rect x="116.75" y="44.75" width="34.5" height="31.5" rx="3.25" stroke="#A3A3A3" stroke-width="1.5"/>
<path d="M129.091 58.6429H127C126.448 58.6429 126 59.0906 126 59.6429V63.3095C126 63.8618 126.448 64.3095 127 64.3095H129.891C129.995 64.3095 130.098 64.3257 130.197 64.3575L140.075 67.5326C140.72 67.7401 141.381 67.2586 141.381 66.5806V56.344C141.381 55.6742 140.735 55.1937 140.094 55.3862L129.379 58.6007C129.285 58.6286 129.189 58.6429 129.091 58.6429Z" stroke="#A3A3A3" stroke-width="1.5" stroke-linecap="round"/>
<path d="M129.238 58.6428V64.3095" stroke="#A3A3A3" stroke-width="1.5" stroke-linecap="round"/>
<path d="M127.214 64.7144V71.0001C127.214 71.5524 127.662 72.0001 128.214 72.0001H129.048C129.6 72.0001 130.048 71.5524 130.048 71.0001V64.7144" stroke="#A3A3A3" stroke-width="1.5" stroke-linecap="round"/>
<path d="M121 49H126" stroke="#A3A3A3" stroke-width="1.5" stroke-linecap="round"/>
<path d="M130 49H147" stroke="#A3A3A3" stroke-width="1.5" stroke-linecap="round"/>
<path d="M117 53L151 53" stroke="#A3A3A3" stroke-width="1.5" stroke-linecap="round"/>
<path d="M64.001 1.00073L60.0001 5.00156" stroke="#A3A3A3"/>
<path d="M64.001 5.00073L60.0001 0.999902" stroke="#A3A3A3"/>
<path d="M78.001 1.00073L74.0001 5.00156" stroke="#A3A3A3"/>
<path d="M78.001 5.00073L74.0001 0.999902" stroke="#A3A3A3"/>
<path d="M92.001 1.00073L88.0001 5.00156" stroke="#A3A3A3"/>
<path d="M92.001 5.00073L88.0001 0.999902" stroke="#A3A3A3"/>
</svg>
