<svg width="147" height="79" viewBox="0 0 147 79" fill="none" xmlns="http://www.w3.org/2000/svg">
<path d="M98.4517 76.7611H97.644V74.0753C97.644 73.977 97.6247 73.8797 97.587 73.7889C97.5494 73.698 97.4943 73.6155 97.4248 73.546C97.3553 73.4765 97.2727 73.4213 97.1819 73.3837C97.0911 73.3461 96.9937 73.3268 96.8954 73.3268H96.4338L95.4104 70.4601V55.6835L96.4338 52.8168H97.6429C97.7412 52.8168 97.8385 52.7974 97.9294 52.7598C98.0202 52.7222 98.1027 52.667 98.1722 52.5975C98.2417 52.528 98.2969 52.4455 98.3345 52.3546C98.3721 52.2638 98.3915 52.1665 98.3915 52.0682V48.6338C98.3915 48.5355 98.3721 48.4382 98.3345 48.3473C98.2969 48.2565 98.2418 48.174 98.1723 48.1044C98.1027 48.0349 98.0202 47.9797 97.9294 47.9421C97.8385 47.9045 97.7412 47.8851 97.6429 47.8851H96.6551V47.5843C96.6542 46.7761 96.3327 46.0012 95.7612 45.4297C95.1898 44.8582 94.4149 44.5368 93.6067 44.5359H93.5275L77.1437 36.0833C77.0375 36.0286 76.9198 36 76.8003 36C76.6809 36 76.5632 36.0286 76.457 36.0833L60.0726 44.5359H59.9936C59.1854 44.5369 58.4107 44.8584 57.8393 45.4299C57.2679 46.0014 56.9466 46.7762 56.9457 47.5843V47.8851H55.9579C55.8596 47.8851 55.7622 47.9045 55.6714 47.9421C55.5806 47.9798 55.498 48.0349 55.4285 48.1044C55.359 48.174 55.3039 48.2565 55.2662 48.3473C55.2286 48.4382 55.2093 48.5355 55.2093 48.6338V52.0682C55.2093 52.1665 55.2286 52.2638 55.2663 52.3547C55.3039 52.4455 55.359 52.528 55.4285 52.5975C55.498 52.6671 55.5806 52.7222 55.6714 52.7598C55.7622 52.7974 55.8596 52.8168 55.9579 52.8168H57.167L58.1904 55.6835V70.46L57.167 73.3267H56.7048C56.6065 73.3267 56.5092 73.3461 56.4183 73.3837C56.3275 73.4213 56.2449 73.4764 56.1754 73.546C56.1059 73.6155 56.0507 73.698 56.0131 73.7888C55.9755 73.8797 55.9561 73.977 55.9561 74.0753V76.7611H55.149C54.9505 76.7611 54.7601 76.84 54.6197 76.9804C54.4793 77.1208 54.4004 77.3112 54.4004 77.5098C54.4004 77.7083 54.4793 77.8987 54.6197 78.0391C54.7601 78.1795 54.9505 78.2584 55.149 78.2584H98.4517C98.6503 78.2584 98.8407 78.1795 98.9811 78.0391C99.1215 77.8987 99.2004 77.7083 99.2004 77.5098C99.2004 77.3112 99.1215 77.1208 98.9811 76.9804C98.8407 76.84 98.6503 76.7611 98.4517 76.7611ZM82.2956 73.3268L81.2723 70.4601V55.6835L82.2956 52.8168H85.4426L86.4659 55.6835V70.4601L85.4426 73.3267L82.2956 73.3268ZM68.1581 73.3268L67.1342 70.46V55.6835L68.1581 52.8168H71.3046L72.3285 55.6835V70.46L71.3046 73.3268H68.1581ZM59.6876 56.3032H65.6369V69.8404H59.6876V56.3032ZM73.8258 56.3032H79.775V69.8404H73.8258V56.3032ZM79.9961 54.8059H73.6046L72.8941 52.8168H80.7062L79.9961 54.8059ZM73.6046 71.3377H79.9961L80.7062 73.3268H72.894L73.6046 71.3377ZM93.9131 69.8404H87.9632V56.3032H93.9131V69.8404ZM87.7422 71.3377H94.1342L94.8443 73.3268H87.0321L87.7422 71.3377ZM94.1342 54.8059H87.7422L87.0321 52.8168H94.8443L94.1342 54.8059ZM76.8004 37.5911L90.2618 44.5359H63.3384L76.8004 37.5911ZM58.443 47.5843C58.4433 47.1731 58.6068 46.7789 58.8975 46.4881C59.1882 46.1973 59.5824 46.0337 59.9936 46.0332H93.6067C94.0179 46.0337 94.4122 46.1973 94.703 46.488C94.9937 46.7788 95.1573 47.1731 95.1578 47.5843V47.8851H58.443V47.5843ZM56.7066 49.3824H96.8942V51.3195H56.7066V49.3824ZM66.5686 52.8168L65.8581 54.8059H59.4665L58.7565 52.8168L66.5686 52.8168ZM59.4665 71.3377H65.8581L66.5686 73.3268H58.7565L59.4665 71.3377ZM57.4534 76.7611V74.824H96.1467V76.7611L57.4534 76.7611Z" fill="#666666" fill-opacity="0.6"/>
<path d="M43.1663 70.2462L35.8626 57.4252C35.5339 56.8166 35.0687 56.2913 34.5031 55.8897C33.9374 55.488 33.2863 55.2209 32.6001 55.109C32.6573 54.8472 32.6879 54.5804 32.6915 54.3126C32.6828 53.5344 32.4626 52.7729 32.0542 52.1087L28.965 44.121C28.4193 42.676 27.4427 41.4307 26.1655 40.5514C24.8884 39.6721 23.3715 39.2007 21.8175 39.2002C20.2635 39.1996 18.7463 39.67 17.4685 40.5483C16.1907 41.4267 15.2132 42.6713 14.6665 44.116C14.6665 44.116 11.6157 52.0403 11.6114 52.0547C11.1828 52.7317 10.951 53.5131 10.9415 54.3126C10.944 54.5802 10.9729 54.847 11.0277 55.109C10.3449 55.2207 9.6969 55.4865 9.13369 55.8859C8.57048 56.2853 8.10703 56.8078 7.77902 57.413L0.458691 70.2606C0.142769 70.8464 -0.0148858 71.5034 0.00110607 72.1676C0.0170979 72.8319 0.20619 73.4807 0.549937 74.0507C0.893683 74.6208 1.38034 75.0926 1.96244 75.4202C2.54454 75.7478 3.2022 75.9199 3.87127 75.9198H8.37569L8.38367 76.0019C8.44937 76.584 8.73258 77.1205 9.17732 77.5052C9.62206 77.89 10.196 78.095 10.7856 78.0798H32.8473C33.437 78.095 34.0109 77.89 34.4556 77.5052C34.9004 77.1205 35.1836 76.584 35.2493 76.0019L35.2572 75.9198H39.7617C40.4324 75.9204 41.0917 75.7479 41.675 75.4192C42.2584 75.0905 42.7457 74.6169 43.0893 74.0449C43.4328 73.4729 43.6208 72.822 43.6348 72.1561C43.6488 71.4901 43.4884 70.832 43.1692 70.2462H43.1663ZM34.4771 57.9342C34.422 57.9342 34.3684 57.9177 34.3126 57.9177H30.8623C31.3317 57.5057 31.7351 57.025 32.0585 56.4921C32.5482 56.5247 33.023 56.6728 33.4436 56.9239C33.8642 57.1751 34.2185 57.5222 34.4771 57.9364V57.9342ZM15.2139 57.9198C15.1698 57.8702 15.1191 57.8268 15.0631 57.791C13.3405 56.8334 12.3915 55.5978 12.3915 54.3126C12.3915 52.9223 13.5159 51.6443 15.2915 50.7227V52.329C15.293 53.4609 15.5931 54.5726 16.1618 55.5535C16.7305 56.5344 17.548 57.3503 18.5329 57.9198H15.2139ZM16.7415 50.1028C20.0346 49.0055 23.5983 49.0055 26.8915 50.1028V52.329C26.8915 53.6657 26.3568 54.9477 25.405 55.8929C24.4533 56.838 23.1624 57.369 21.8165 57.369C20.4705 57.369 19.1796 56.838 18.2279 55.8929C17.2762 54.9477 16.7415 53.6657 16.7415 52.329V50.1028ZM28.3415 52.329V50.7198C30.117 51.6414 31.2415 52.9194 31.2415 54.3098C31.2415 55.631 30.1967 56.937 28.3748 57.8939C28.3639 57.8997 28.3574 57.9105 28.3465 57.917H25.1C26.0845 57.3476 26.9017 56.5322 27.4704 55.5519C28.0391 54.5715 28.3394 53.4604 28.3415 52.329ZM16.0201 44.6315C16.461 43.4585 17.2526 42.4475 18.2887 41.734C19.3247 41.0205 20.5557 40.6387 21.8165 40.6398C23.0752 40.6499 24.3016 41.0367 25.3355 41.7497C26.3695 42.4627 27.1629 43.4688 27.6121 44.6366L29.5885 49.7486C27.2162 48.4338 24.5324 47.7747 21.8165 47.8398C19.1016 47.7741 16.4187 48.432 14.0466 49.745L16.0201 44.6315ZM11.5664 56.4942C11.8851 57.0279 12.2858 57.5089 12.754 57.9198H9.32036C9.26381 57.9198 9.21017 57.9328 9.15507 57.9364C9.41311 57.5234 9.76633 57.1772 10.1856 56.9265C10.6049 56.6757 11.0781 56.5276 11.5664 56.4942ZM3.87127 74.4798C3.45374 74.4803 3.04321 74.3734 2.67955 74.1697C2.31588 73.966 2.01146 73.6724 1.79584 73.3173C1.58022 72.9622 1.46074 72.5578 1.44901 72.1433C1.43728 71.7288 1.5337 71.3184 1.72889 70.9518L7.03444 61.6379L8.24084 74.4798H3.87127ZM32.8473 76.6398H10.7856C10.5583 76.6504 10.3351 76.5776 10.1583 76.4352C9.98159 76.2929 9.86372 76.091 9.82714 75.868L8.36192 60.2678C8.35257 60.1601 8.36628 60.0517 8.40214 59.9497C8.438 59.8477 8.49521 59.7544 8.56999 59.6759C8.66611 59.5744 8.78248 59.4938 8.91167 59.4394C9.04086 59.385 9.18005 59.3579 9.32036 59.3598H34.3126C34.4529 59.3579 34.5921 59.385 34.7213 59.4394C34.8505 59.4938 34.9668 59.5744 35.0629 59.6759C35.1377 59.7544 35.1949 59.8477 35.2308 59.9497C35.2667 60.0517 35.2804 60.1601 35.271 60.2678L33.8058 75.868C33.7692 76.091 33.6513 76.2929 33.4746 76.4352C33.2979 76.5776 33.0746 76.6504 32.8473 76.6398ZM41.8373 73.3106C41.6239 73.6682 41.3202 73.9642 40.9561 74.1693C40.592 74.3744 40.1802 74.4815 39.7617 74.4798H35.3921L36.5985 61.6408L41.899 70.9403C42.0982 71.3062 42.1975 71.7175 42.1871 72.1333C42.1767 72.5491 42.0568 72.955 41.8395 73.3106H41.8373Z" fill="#666666" fill-opacity="0.6"/>
<path d="M21.817 65.1197C21.2434 65.1197 20.6827 65.2886 20.2058 65.6051C19.7289 65.9215 19.3572 66.3713 19.1377 66.8976C18.9182 67.4238 18.8608 68.0029 18.9727 68.5616C19.0846 69.1202 19.3608 69.6334 19.7664 70.0362C20.172 70.439 20.6887 70.7133 21.2512 70.8244C21.8138 70.9355 22.3969 70.8785 22.9268 70.6605C23.4567 70.4425 23.9096 70.0734 24.2283 69.5998C24.5469 69.1262 24.717 68.5693 24.717 67.9997C24.717 67.2359 24.4115 66.5034 23.8676 65.9633C23.3237 65.4231 22.5861 65.1197 21.817 65.1197ZM21.817 69.4397C21.5302 69.4397 21.2499 69.3553 21.0114 69.197C20.773 69.0388 20.5871 68.8139 20.4774 68.5508C20.3676 68.2877 20.3389 67.9981 20.3949 67.7188C20.4508 67.4395 20.5889 67.1829 20.7917 66.9815C20.9945 66.7801 21.2528 66.643 21.5341 66.5874C21.8154 66.5318 22.1069 66.5603 22.3719 66.6693C22.6368 66.7783 22.8633 66.9629 23.0226 67.1997C23.182 67.4365 23.267 67.7149 23.267 67.9997C23.267 68.3816 23.1142 68.7479 22.8423 69.018C22.5704 69.288 22.2016 69.4397 21.817 69.4397Z" fill="#666666" fill-opacity="0.6"/>
<path d="M145.556 70.4806L145.484 70.5508L145.556 70.4806L139.949 64.7889C140.112 64.4801 140.193 64.1395 140.193 63.798C140.193 61.9288 137.959 61.0061 136.668 62.3164L136.528 62.4585L134.222 60.1169C138.117 55.0767 137.687 47.8675 133.223 43.333L133.223 43.333C128.344 38.3794 120.437 38.3794 115.558 43.333C110.681 48.2858 110.681 56.313 115.558 61.2658C119.425 65.1926 125.39 66.1234 130.244 63.5033L132.872 66.1724L132.801 66.2447C132.399 66.6529 132.198 67.19 132.198 67.7264C132.198 69.3294 133.884 70.3095 135.236 69.5732L140.841 75.2648C141.567 76.0021 142.75 76.0021 143.476 75.2648L145.556 73.1529L145.556 73.1528C145.892 72.8104 146.071 72.3667 146.094 71.9168H146.1V71.8168C146.1 71.3329 145.918 70.8483 145.556 70.4806ZM137.058 64.06L137.058 64.0599L137.724 63.3823C137.835 63.2688 137.982 63.2126 138.129 63.2126C138.26 63.2126 138.354 63.2521 138.419 63.2923C138.452 63.3127 138.478 63.3335 138.498 63.3507C138.505 63.3567 138.51 63.3617 138.516 63.3666C138.518 63.3691 138.521 63.3716 138.524 63.3742C138.528 63.3776 138.533 63.3817 138.537 63.3854C138.538 63.3863 138.54 63.3875 138.542 63.3889C138.758 63.6161 138.756 63.9865 138.535 64.2109L134.667 68.1391C134.555 68.2526 134.408 68.3087 134.261 68.3087C133.746 68.3087 133.498 67.6748 133.855 67.3119L137.058 64.06ZM144.609 71.8182V71.8658C144.599 71.9462 144.564 72.0245 144.502 72.087L142.422 74.1987C142.422 74.1987 142.422 74.1987 142.422 74.1988C142.278 74.3439 142.039 74.3435 141.897 74.199L136.351 68.5677L138.958 65.9203L144.5 71.5494L144.572 71.4792L144.5 71.5494C144.572 71.6225 144.609 71.7198 144.609 71.8182ZM129.498 44.7145L129.498 44.7145C129.158 44.4782 128.695 44.5693 128.463 44.9116L128.463 44.9123C128.234 45.2566 128.319 45.7261 128.659 45.9603C130.706 47.3846 131.948 49.7342 131.948 52.298C131.948 56.5402 128.563 59.9752 124.389 59.9752C120.215 59.9752 116.83 56.5401 116.83 52.298C116.83 48.0558 120.215 44.6207 124.389 44.6207C124.802 44.6207 125.134 44.2805 125.134 43.8652C125.134 43.45 124.802 43.1098 124.389 43.1098C121.889 43.1098 119.626 44.1384 117.99 45.802C114.456 49.3898 114.456 55.2063 117.99 58.794C121.524 62.3826 127.254 62.3826 130.789 58.794C134.806 54.7149 134.158 47.9508 129.498 44.7145ZM125.618 43.9243L125.618 43.925C125.525 44.3251 125.767 44.7325 126.164 44.8314L127.124 45.1369C127.507 45.286 127.935 45.0903 128.082 44.7048C128.23 44.3183 128.04 43.8825 127.658 43.7316C127.266 43.5769 126.927 43.4706 126.516 43.3691L126.492 43.4662L126.516 43.3691C126.115 43.2699 125.715 43.521 125.618 43.9243ZM133.926 65.1042L131.549 62.6912C132.153 62.2608 132.715 61.7805 133.235 61.2513L135.477 63.5279L133.926 65.1042ZM116.612 44.3988C120.907 40.0377 127.871 40.0377 132.166 44.3988C136.463 48.7623 136.461 55.835 132.166 60.197C127.871 64.5581 120.907 64.5581 116.612 60.197C112.316 55.835 112.316 48.7607 116.612 44.3988Z" fill="#666666" fill-opacity="0.6" stroke="#A3A3A3" stroke-width="0.2"/>
<path d="M22 36V20.2037C22 18.5468 23.3431 17.2037 25 17.2037H59C60.6569 17.2037 62 15.8606 62 14.2037V7" stroke="#A3A3A3"/>
<path d="M130 36V20.2037C130 18.5468 128.657 17.2037 127 17.2037H93C91.3431 17.2037 90 15.8606 90 14.2037V7" stroke="#A3A3A3"/>
<path d="M76 7V31.5" stroke="#A3A3A3"/>
<path d="M64.001 1.00082L60.0001 5.00165" stroke="#A3A3A3"/>
<path d="M64.001 5.00082L60.0001 0.999993" stroke="#A3A3A3"/>
<path d="M78.001 1.00082L74.0001 5.00165" stroke="#A3A3A3"/>
<path d="M78.001 5.00082L74.0001 0.999993" stroke="#A3A3A3"/>
<path d="M92.001 1.00082L88.0001 5.00165" stroke="#A3A3A3"/>
<path d="M92.001 5.00082L88.0001 0.999993" stroke="#A3A3A3"/>
</svg>
