<svg width="55" height="55" viewBox="0 0 55 55" fill="none" xmlns="http://www.w3.org/2000/svg">
<rect x="1" y="1" width="53" height="53" rx="4" fill="#3C00D0" fill-opacity="0.1"/>
<rect x="1" y="1" width="53" height="53" rx="4" stroke="#3C00D0" stroke-width="2"/>
<path d="M43.3782 22.6472C43.3782 21.9599 42.8209 21.402 42.1329 21.402C41.4449 21.402 40.8877 21.9599 40.8877 22.6472C40.8877 23.3346 41.4449 23.8925 42.1329 23.8925C42.8209 23.8925 43.3782 23.3346 43.3782 22.6472Z" fill="#3C00D0"/>
<path d="M40.8875 17.6667C40.8875 16.9793 40.3302 16.4214 39.6422 16.4214C38.9542 16.4214 38.397 16.9793 38.397 17.6667C38.397 18.354 38.9542 18.9119 39.6422 18.9119C40.3302 18.9119 40.8875 18.354 40.8875 17.6667Z" fill="#3C00D0"/>
<path d="M36.5291 13.8976C36.5291 13.2102 35.9718 12.6523 35.2838 12.6523C34.5958 12.6523 34.0386 13.2102 34.0386 13.8976C34.0386 14.585 34.5958 15.1428 35.2838 15.1428C35.9718 15.1428 36.5291 14.585 36.5291 13.8976Z" fill="#3C00D0"/>
<path d="M43.9997 26.3499H41.5092V31.3309H37.1508V33.8544V37.5901C37.1508 38.1486 36.4641 38.8023 35.9056 38.8023H29.0568C28.3694 38.8023 27.8115 39.3602 27.8115 40.0476C27.8115 40.7349 28.3694 41.2928 29.0568 41.2928H30.9246V45.6512H33.4151V41.2928H35.9056C37.8258 41.2928 39.6413 39.5102 39.6413 37.5901V33.8214H43.9997V26.3499Z" fill="#3C00D0"/>
<path d="M19.718 36.3119H17.2275V45.6512H19.718V36.3119Z" fill="#3C00D0"/>
<path d="M15.3596 28.2179C15.3596 27.5305 14.8024 26.9726 14.1144 26.9726C13.4264 26.9726 12.8691 27.5305 12.8691 28.2179C12.8691 28.9053 13.4264 29.4631 14.1144 29.4631C14.8024 29.4631 15.3596 28.9053 15.3596 28.2179Z" fill="#3C00D0"/>
<path d="M17.2268 33.1989C17.2268 32.5115 16.6696 31.9537 15.9816 31.9537C15.2936 31.9537 14.7363 32.5115 14.7363 33.1989C14.7363 33.8863 15.2936 34.4441 15.9816 34.4441C16.6696 34.4441 17.2268 33.8863 17.2268 33.1989Z" fill="#3C00D0"/>
<path d="M36 28C36 27.7374 35.9483 27.4773 35.8478 27.2346C35.7472 26.992 35.5999 26.7715 35.4142 26.5858C35.2285 26.4001 35.008 26.2528 34.7654 26.1522C34.5227 26.0517 34.2626 26 34 26C33.7374 26 33.4773 26.0517 33.2346 26.1522C32.992 26.2528 32.7715 26.4001 32.5858 26.5858C32.4001 26.7715 32.2528 26.992 32.1522 27.2346C32.0517 27.4773 32 27.7374 32 28L34 28H36Z" fill="#3C00D0"/>
<path d="M33 34V34C33.9193 35.8386 35.7985 37 37.8541 37H38" stroke="#3C00D0" stroke-width="2" stroke-linecap="square"/>
<rect x="19" y="7" width="6" height="13" rx="3" fill="#EBE5FA" stroke="#3C00D0" stroke-width="2"/>
<rect x="14" y="13" width="16" height="11" rx="1" fill="#3C00D0"/>
<rect x="21.5" y="16.5" width="1" height="4" rx="0.5" fill="#D9D9D9" stroke="#E6E6E6"/>
</svg>
