<svg width="55" height="55" viewBox="0 0 55 55" fill="none" xmlns="http://www.w3.org/2000/svg">
<rect x="1" y="1" width="53" height="53" rx="4" fill="#FFD60A"/>
<rect x="1" y="1" width="53" height="53" rx="4" stroke="#2965D1" stroke-width="2"/>
<path d="M43.3784 22.6472C43.3784 21.9598 42.8212 21.402 42.1332 21.402C41.4452 21.402 40.8879 21.9598 40.8879 22.6472C40.8879 23.3346 41.4452 23.8925 42.1332 23.8925C42.8212 23.8925 43.3784 23.3346 43.3784 22.6472Z" fill="#2965D1"/>
<path d="M40.8875 17.6666C40.8875 16.9793 40.3302 16.4214 39.6422 16.4214C38.9542 16.4214 38.397 16.9793 38.397 17.6666C38.397 18.354 38.9542 18.9119 39.6422 18.9119C40.3302 18.9119 40.8875 18.354 40.8875 17.6666Z" fill="#2965D1"/>
<path d="M36.5291 13.8976C36.5291 13.2102 35.9718 12.6523 35.2838 12.6523C34.5958 12.6523 34.0386 13.2102 34.0386 13.8976C34.0386 14.585 34.5958 15.1428 35.2838 15.1428C35.9718 15.1428 36.5291 14.585 36.5291 13.8976Z" fill="#2965D1"/>
<path d="M43.9994 26.3499H41.5089V31.3308H37.1506V33.8543V37.59C37.1506 38.1485 36.4638 38.8023 35.9053 38.8023H29.0565C28.3691 38.8023 27.8113 39.3601 27.8113 40.0475C27.8113 40.7349 28.3691 41.2927 29.0565 41.2927H30.9244V45.6511H33.4149V41.2927H35.9053C37.8255 41.2927 39.6411 39.5102 39.6411 37.59V33.8213H43.9994V26.3499Z" fill="#2965D1"/>
<path d="M19.718 36.3119H17.2275V45.6512H19.718V36.3119Z" fill="#2965D1"/>
<path d="M15.3596 28.2179C15.3596 27.5305 14.8024 26.9727 14.1144 26.9727C13.4264 26.9727 12.8691 27.5305 12.8691 28.2179C12.8691 28.9053 13.4264 29.4631 14.1144 29.4631C14.8024 29.4631 15.3596 28.9053 15.3596 28.2179Z" fill="#2965D1"/>
<path d="M17.2271 33.1989C17.2271 32.5115 16.6698 31.9536 15.9818 31.9536C15.2938 31.9536 14.7366 32.5115 14.7366 33.1989C14.7366 33.8862 15.2938 34.4441 15.9818 34.4441C16.6698 34.4441 17.2271 33.8862 17.2271 33.1989Z" fill="#2965D1"/>
<rect x="19" y="7" width="6" height="13" rx="3" fill="#FFD60A" stroke="#2965D1" stroke-width="2"/>
<rect x="14" y="13" width="16" height="11" rx="1" fill="#2965D1"/>
<rect x="21.5" y="16.5" width="1" height="4" rx="0.5" fill="#FFD60A" stroke="#FFD60A"/>
<rect x="15" y="10" width="7" height="3" fill="#FFD60A"/>
<path d="M36.981 26H32V27.2452H32.7129C32.9483 28.0708 33.6506 28.4905 34.4899 28.4905C35.3292 28.4905 36.0315 28.0708 36.2668 27.2452H36.981V26Z" fill="#2965D1"/>
</svg>
